<svg xmlns="http://www.w3.org/2000/svg" width="25" height="24" viewBox="0 0 25 24" fill="none">
  <g opacity="0.5">
    <path d="M4.5 11.4998L4.01493 11.6211C3.12459 11.8437 2.5 12.6436 2.5 13.5614V15.4382C2.5 16.356 3.12459 17.1559 4.01493 17.3785L5.75448 17.8134C6.13317 17.9081 6.5 17.6217 6.5 17.2313V11.7683C6.5 11.3779 6.13317 11.0915 5.75448 11.1862L4.5 11.4998ZM4.5 11.4998V11C4.5 6.58172 8.08172 3 12.5 3C16.9183 3 20.5 6.58172 20.5 11V11.4998M20.5 11.4998L20.9851 11.6211C21.8754 11.8437 22.5 12.6436 22.5 13.5614V15.4382C22.5 16.356 21.8754 17.1559 20.9851 17.3785L20.5 17.4998M20.5 11.4998L19.2455 11.1862C18.8668 11.0915 18.5 11.3779 18.5 11.7683V17.2313C18.5 17.6217 18.8668 17.9081 19.2455 17.8134L20.5 17.4998M20.5 17.4998V18V18.5C20.5 19.6046 19.6046 20.5 18.5 20.5H15.5M15.5 20.5C15.5 19.6716 14.8284 19 14 19H11C10.1716 19 9.5 19.6716 9.5 20.5C9.5 21.3284 10.1716 22 11 22H14C14.8284 22 15.5 21.3284 15.5 20.5Z" stroke="black" stroke-width="1.5"/>
  </g>
</svg>