<svg width="50" height="50" viewBox="0 0 50 50" fill="none" xmlns="http://www.w3.org/2000/svg">
<path d="M43.75 15.3189V34.6814C43.7501 34.9045 43.6905 35.1237 43.5773 35.316C43.4641 35.5083 43.3014 35.6669 43.1062 35.7751L25.6063 45.4959C25.4207 45.5988 25.2121 45.6528 25 45.6528C24.7879 45.6528 24.5792 45.5988 24.3937 45.4959L6.89375 35.7751C6.69858 35.6669 6.53594 35.5083 6.42274 35.316C6.30954 35.1237 6.24989 34.9045 6.25 34.6814V15.3189C6.25026 15.096 6.31008 14.8773 6.42327 14.6854C6.53645 14.4934 6.69889 14.3353 6.89375 14.2272L24.3937 4.50427C24.5792 4.40139 24.7879 4.34741 25 4.34741C25.2121 4.34741 25.4207 4.40139 25.6063 4.50427L43.1062 14.2272C43.3011 14.3353 43.4635 14.4934 43.5767 14.6854C43.6899 14.8773 43.7497 15.096 43.75 15.3189Z" stroke="#E2FF14" stroke-width="3" stroke-linecap="round" stroke-linejoin="round"/>
<path d="M7.34961 15.1959L24.3913 24.6626C24.577 24.7658 24.786 24.82 24.9986 24.82C25.2111 24.82 25.4201 24.7658 25.6059 24.6626L42.7079 15.1626M24.9996 43.7501V25.0001" stroke="#E2FF14" stroke-width="3" stroke-linecap="round" stroke-linejoin="round"/>
<path d="M24.3562 24.6438L8.10625 15.6146C7.91592 15.5091 7.70132 15.455 7.48369 15.4579C7.26606 15.4607 7.05295 15.5203 6.86543 15.6308C6.67792 15.7413 6.5225 15.8988 6.41456 16.0878C6.30662 16.2768 6.24989 16.4907 6.25 16.7084V34.6813C6.24989 34.9045 6.30954 35.1236 6.42274 35.3159C6.53594 35.5083 6.69858 35.6668 6.89375 35.775L23.1437 44.8021C23.3341 44.9077 23.5487 44.9617 23.7663 44.9589C23.9839 44.956 24.1971 44.8964 24.3846 44.7859C24.5721 44.6754 24.7275 44.5179 24.8354 44.3289C24.9434 44.1399 25.0001 43.926 25 43.7084V25.7355C24.9997 25.5126 24.9399 25.2939 24.8267 25.102C24.7135 24.9101 24.5511 24.7519 24.3562 24.6438Z" fill="#E2FF14" stroke="#E2FF14" stroke-width="3" stroke-linejoin="round"/>
</svg>
