<svg width="50" height="50" viewBox="0 0 50 50" fill="none" xmlns="http://www.w3.org/2000/svg">
<path d="M12.5 6.25H6.25V12.5M37.5 6.25H43.75V12.5M12.5 43.75H6.25V37.5M14.5833 37.5V35.4167C14.5833 32.654 15.6808 30.0045 17.6343 28.051C19.5878 26.0975 22.2373 25 25 25M25 25C27.7627 25 30.4122 26.0975 32.3657 28.051C34.3192 30.0045 35.4167 32.654 35.4167 35.4167V37.5M25 25C26.6576 25 28.2473 24.3415 29.4194 23.1694C30.5915 21.9973 31.25 20.4076 31.25 18.75C31.25 17.0924 30.5915 15.5027 29.4194 14.3306C28.2473 13.1585 26.6576 12.5 25 12.5C23.3424 12.5 21.7527 13.1585 20.5806 14.3306C19.4085 15.5027 18.75 17.0924 18.75 18.75C18.75 20.4076 19.4085 21.9973 20.5806 23.1694C21.7527 24.3415 23.3424 25 25 25ZM37.5 43.75H43.75V37.5" stroke="#E2FF14" stroke-width="3" stroke-linecap="round" stroke-linejoin="round"/>
</svg>
