<svg width="50" height="50" viewBox="0 0 50 50" fill="none" xmlns="http://www.w3.org/2000/svg">
<path d="M19.5833 45.8335H7.5C6.80964 45.8335 6.25 45.2739 6.25 44.5835V36.6668C6.25 35.9765 6.80964 35.4168 7.5 35.4168H19.5833C20.2737 35.4168 20.8333 35.9765 20.8333 36.6668V44.5835C20.8333 45.2739 20.2737 45.8335 19.5833 45.8335Z" stroke="#E2FF14" stroke-width="3"/>
<path d="M31.0413 14.5835H18.958C18.2677 14.5835 17.708 14.0239 17.708 13.3335V5.41683C17.708 4.72647 18.2677 4.16683 18.958 4.16683H31.0413C31.7317 4.16683 32.2913 4.72647 32.2913 5.41683V13.3335C32.2913 14.0239 31.7317 14.5835 31.0413 14.5835Z" stroke="#E2FF14" stroke-width="3"/>
<path d="M42.5003 45.8335H30.417C29.7266 45.8335 29.167 45.2739 29.167 44.5835V36.6668C29.167 35.9765 29.7266 35.4168 30.417 35.4168H42.5003C43.1907 35.4168 43.7503 35.9765 43.7503 36.6668V44.5835C43.7503 45.2739 43.1907 45.8335 42.5003 45.8335Z" stroke="#E2FF14" stroke-width="3"/>
<path d="M13.542 35.4168V28.1252C13.542 27.0201 13.981 25.9603 14.7624 25.1789C15.5438 24.3975 16.6036 23.9585 17.7087 23.9585H32.292C33.3971 23.9585 34.4569 24.3975 35.2383 25.1789C36.0197 25.9603 36.4587 27.0201 36.4587 28.1252V35.4168M25.0003 23.9585V14.5835" stroke="#E2FF14" stroke-width="3"/>
</svg>
