<svg width="100" height="100" viewBox="0 0 100 100" fill="none" xmlns="http://www.w3.org/2000/svg">
<path d="M28.125 6.25C22.9736 6.25 18.75 10.4736 18.75 15.625V78.125C18.75 83.2764 22.9736 87.5 28.125 87.5H71.875C77.0264 87.5 81.25 83.2764 81.25 78.125V34.375C81.25 33.5449 80.9326 32.7637 80.3467 32.1777L55.3223 7.17774C54.7363 6.56738 53.9551 6.25 53.125 6.25H28.125ZM28.125 12.5H51.8311L75 35.6689V78.125C75 79.8828 73.6328 81.25 71.875 81.25H28.125C26.3672 81.25 25 79.8828 25 78.125V15.625C25 13.8672 26.3672 12.5 28.125 12.5ZM34.375 43.75C32.6416 43.75 31.25 45.1416 31.25 46.875V71.875C31.25 73.6084 32.6416 75 34.375 75H65.625C67.3584 75 68.75 73.6084 68.75 71.875V46.875C68.75 45.1416 67.3584 43.75 65.625 43.75H34.375ZM37.5 50H43.75V56.25H50V50H62.5V68.75H56.25V62.5H50V68.75H37.5V50Z" fill="#E2FF14"/>
</svg>
