<svg width="101" height="100" viewBox="0 0 101 100" fill="none" xmlns="http://www.w3.org/2000/svg">
<rect x="8.90625" y="8.57129" width="48.5714" height="48.5714" rx="8" fill="#E2FF14"/>
<rect x="18.334" y="18" width="52.5714" height="52.5714" rx="10" fill="#E2FF14" stroke="#277036" stroke-width="4"/>
<rect x="28.334" y="28" width="65.4286" height="65.4286" rx="10" fill="#E2FF14" stroke="#277036" stroke-width="4"/>
<path d="M77.6744 48.1938C77.1331 48.2099 76.6194 48.4361 76.2421 48.8245L54.7984 70.2682L47.9381 63.4078C47.7461 63.2079 47.5162 63.0482 47.2617 62.9383C47.0073 62.8283 46.7335 62.7702 46.4563 62.7674C46.1791 62.7646 45.9042 62.8171 45.6476 62.9218C45.391 63.0266 45.1578 63.1815 44.9618 63.3775C44.7658 63.5735 44.6109 63.8067 44.5061 64.0633C44.4014 64.3199 44.3489 64.5948 44.3517 64.872C44.3545 65.1492 44.4126 65.423 44.5226 65.6774C44.6325 65.9319 44.7922 66.1618 44.9921 66.3538L53.3254 74.6871C53.7161 75.0777 54.246 75.2971 54.7984 75.2971C55.3509 75.2971 55.8807 75.0777 56.2714 74.6871L79.1881 51.7704C79.4891 51.4778 79.6947 51.1011 79.778 50.6896C79.8612 50.2781 79.8182 49.851 79.6546 49.4644C79.491 49.0777 79.2144 48.7495 78.861 48.5228C78.5077 48.2961 78.094 48.1814 77.6744 48.1938Z" fill="#277036"/>
</svg>
