<svg width="166" height="40" viewBox="0 0 166 40" fill="none" xmlns="http://www.w3.org/2000/svg">
<path d="M18.1942 28.0116C17.5486 28.0116 17.0237 28.5364 17.0237 29.182V31.9467C17.0237 32 17.0967 32.8673 16.3445 32.8673H11.8733C11.2278 32.8673 10.7029 33.3922 10.7029 34.0377V38.7082C10.7029 39.3537 11.2278 39.8786 11.8733 39.8786H16.5438C17.1893 39.8786 17.7142 39.3537 17.7142 38.7082V35.1352C17.7142 34.9331 17.7759 33.743 18.9632 33.743H21.5819C22.2275 33.743 22.7523 33.2181 22.7523 32.5726V29.1848C22.7523 28.5393 22.2275 28.0144 21.5819 28.0144H18.1942V28.0116ZM26.446 24.3965L24.0491 26.7934C23.5916 27.2509 23.5916 27.9919 24.0491 28.4494L25.9998 30.4001H26.0026C26.0419 30.4422 26.7043 31.0036 26.1738 31.5341L23.0106 34.6973C22.5531 35.1548 22.5531 35.8958 23.0106 36.3533L26.3141 39.6569C26.7716 40.1144 27.5126 40.1144 27.9701 39.6569L31.2737 36.3533C31.7312 35.8958 31.7312 35.1548 31.2737 34.6973L28.7476 32.1712C28.6044 32.0281 27.8073 31.1439 28.6465 30.3047L30.499 28.4522C30.9565 27.9947 30.9565 27.2537 30.499 26.7962L28.102 24.3993C27.8747 24.1719 27.5744 24.0568 27.274 24.0568C26.9737 24.0568 26.6762 24.1719 26.446 24.3993M3.64669 23.1418L0.343127 26.4454C-0.114376 26.9029 -0.114376 27.6439 0.343127 28.1014L3.64669 31.405C4.10419 31.8625 4.84518 31.8625 5.30268 31.405L7.82877 28.8789C7.97191 28.7357 8.85605 27.9386 9.69527 28.7778L11.5477 30.6303C12.0052 31.0878 12.7462 31.0878 13.2037 30.6303L15.6007 28.2333C16.0582 27.7758 16.0582 27.0348 15.6007 26.5773L13.2037 24.1803C12.7462 23.7228 12.0052 23.7228 11.5477 24.1803L9.59703 26.131H9.59422C9.55493 26.1731 8.99358 26.8383 8.4631 26.3051L5.30268 23.1418C5.07533 22.9145 4.77501 22.7994 4.47469 22.7994C4.17436 22.7994 3.87684 22.9145 3.64669 23.1418ZM29.1826 17.2027C28.5371 17.2027 28.0122 17.7276 28.0122 18.3731V21.7637C28.0122 22.4093 28.5371 22.9341 29.1826 22.9341H31.9473C31.9473 22.9341 31.9613 22.9341 31.9754 22.9341C32.1382 22.9285 32.8651 22.9257 32.8651 23.6134V28.0846C32.8651 28.7301 33.39 29.255 34.0355 29.255H38.706C39.3515 29.255 39.8764 28.7301 39.8764 28.0846V23.4141C39.8764 22.7685 39.3515 22.2437 38.706 22.2437H35.133C34.9309 22.2437 33.7408 22.1819 33.7408 20.9947V18.3759C33.7408 17.7304 33.216 17.2055 32.5704 17.2055H29.1826V17.2027ZM1.17393 10.7443C0.528374 10.7443 0.00350844 11.2692 0.00350844 11.9176V16.588C0.00350844 17.2336 0.528374 17.7584 1.17393 17.7584H4.74694C4.94903 17.7584 6.1391 17.8202 6.1391 19.0075V21.6262C6.1391 22.2717 6.66396 22.7966 7.30952 22.7966H10.6973C11.3428 22.7966 11.8677 22.2717 11.8677 21.6262V18.2356C11.8677 17.59 11.3428 17.0652 10.6973 17.0652H7.93262C7.93262 17.0652 7.91859 17.0652 7.90455 17.0652C7.74176 17.0708 7.012 17.0736 7.012 16.3859V11.9147C7.012 11.2692 6.48714 10.7443 5.84158 10.7443H1.17393ZM34.58 8.59433L32.054 11.1204C31.9108 11.2636 31.0267 12.0607 30.1875 11.2215L28.335 9.369C27.8775 8.9115 27.1365 8.9115 26.679 9.369L24.282 11.766C23.8245 12.2235 23.8245 12.9645 24.282 13.422L26.679 15.819C27.1365 16.2765 27.8775 16.2765 28.335 15.819L30.2857 13.8683H30.2885C30.3278 13.8262 30.8892 13.161 31.4196 13.6942L34.58 16.8575C35.0376 17.315 35.7785 17.315 36.236 16.8575L39.5396 13.5539C39.9971 13.0964 39.9971 12.3554 39.5396 11.8979L36.236 8.59433C36.0087 8.36699 35.7084 8.25191 35.408 8.25191C35.1077 8.25191 34.8102 8.36699 34.58 8.59433ZM23.339 0C22.6934 0 22.1685 0.524866 22.1685 1.17042V4.74344C22.1685 4.94553 22.1068 6.1356 20.9195 6.1356H18.3008C17.6553 6.1356 17.1304 6.66047 17.1304 7.30603V10.6966C17.1304 11.3422 17.6553 11.867 18.3008 11.867H21.6914C22.3369 11.867 22.8618 11.3422 22.8618 10.6966V7.93474C22.8618 7.87861 22.7888 7.01412 23.541 7.01412H28.0122C28.6578 7.01412 29.1826 6.48926 29.1826 5.8437V1.17042C29.1826 0.524866 28.6578 0 28.0122 0H23.3418H23.339ZM11.9126 0.342426L8.61186 3.646C8.15436 4.1035 8.15436 4.84449 8.61186 5.30199L11.1379 7.82809C11.2811 7.97123 12.0782 8.85536 11.239 9.69459L9.38652 11.5471C8.92902 12.0046 8.92902 12.7455 9.38652 13.2031L11.7835 15.6C12.241 16.0575 12.982 16.0575 13.4395 15.6L15.8365 13.2031C16.294 12.7455 16.294 12.0046 15.8365 11.5471L13.8858 9.59635H13.883C13.8437 9.55425 13.1813 8.9929 13.7118 8.46242L16.8722 5.29918C17.3297 4.84168 17.3297 4.10069 16.8722 3.64319L13.5686 0.342426C13.3413 0.115078 13.0409 0 12.7406 0C12.4403 0 12.1428 0.115078 11.9126 0.342426Z" fill="url(#paint0_linear_23_992)"/>
<path d="M53.8125 15.8343V5.61768H50.2676V4.01221H59.0303V5.61768H55.5022V15.8371H53.8125V15.8343Z" fill="white"/>
<path d="M61.9744 7.90865C62.6592 6.93751 63.6135 6.65402 64.7503 6.65402C67.5093 6.65402 68.6966 8.37738 68.6966 10.968V15.835H67.0574V10.9849C67.0574 9.2952 66.6224 8.14161 64.6997 8.10793C62.9427 8.07425 61.9744 9.32888 61.9744 10.9175V15.835H60.3521V4.12793H61.9744V7.90865Z" fill="white"/>
<path d="M80.0871 11.7058H72.4275C72.4275 13.4796 74.1172 14.549 75.47 14.549C76.5899 14.549 77.6284 14.0634 78.1617 13.0446H79.8514C79.1665 15.0177 77.3084 16.0057 75.4532 16.0057C73.1292 16.0057 70.7883 14.4339 70.7883 11.324C70.7883 8.21413 73.0955 6.65918 75.4869 6.65918C77.7267 6.65918 79.9356 8.07941 80.118 10.9227C80.1517 11.1893 80.1349 11.4756 80.0843 11.7086L80.0871 11.7058ZM78.3975 10.3501C78.0803 8.72777 76.792 8.09344 75.4869 8.09344C74.1817 8.09344 72.8288 8.74461 72.492 10.3501H78.3947H78.3975Z" fill="white"/>
<path d="M92.8293 12.876H88.0803L86.9435 15.8371H85.1191L89.8177 3.97852H91.0554L95.754 15.8371H93.9464L92.8265 12.876H92.8293ZM88.6978 11.2873H92.209L90.452 6.67021L88.695 11.2873H88.6978Z" fill="white"/>
<path d="M98.7349 7.95917C99.5207 6.88979 100.657 6.63718 101.777 6.63718C104.837 6.63718 106.428 8.82927 106.428 11.2684C106.428 13.7074 104.907 15.9837 101.747 15.9837C100.627 15.9669 99.3888 15.5992 98.7349 14.6112V15.8322H97.0957V4.12793H98.7349V7.95917ZM101.679 14.5326C103.753 14.5832 104.806 12.9272 104.789 11.2712C104.772 9.68253 103.784 8.11074 101.811 8.07706C100.273 8.06022 98.7349 9.1296 98.7349 11.3048C98.7349 13.4801 100.189 14.499 101.679 14.5326Z" fill="white"/>
<path d="M110.074 15.835H108.435V4.12793H110.074V15.835Z" fill="white"/>
<path d="M121.43 11.7058H113.77C113.77 13.4796 115.46 14.549 116.813 14.549C117.933 14.549 118.971 14.0634 119.505 13.0446H121.194C120.51 15.0177 118.651 16.0057 116.796 16.0057C114.472 16.0057 112.131 14.4339 112.131 11.324C112.131 8.21413 114.439 6.65918 116.83 6.65918C119.07 6.65918 121.279 8.07941 121.464 10.9227C121.498 11.1893 121.481 11.4756 121.43 11.7086V11.7058ZM119.74 10.3501C119.423 8.72777 118.135 8.09344 116.83 8.09344C115.525 8.09344 114.172 8.74461 113.835 10.3501H119.738H119.74Z" fill="white"/>
<path d="M53.8125 32.4587V22.2393H50.2676V20.6338H59.0303V22.2393H55.5022V32.4587H53.8125Z" fill="white"/>
<path d="M69.2497 28.3308H61.5901C61.5901 30.1046 63.2798 31.174 64.6326 31.174C65.7525 31.174 66.791 30.6884 67.3243 29.6696H69.014C68.3291 31.6427 66.471 32.6307 64.6158 32.6307C62.2918 32.6307 59.9509 31.0589 59.9509 27.949C59.9509 24.8391 62.2581 23.2842 64.6495 23.2842C66.8893 23.2842 69.0982 24.7072 69.2834 27.5477C69.3171 27.8143 69.3003 28.1006 69.2497 28.3336V28.3308ZM67.5601 26.9751C67.2429 25.3528 65.9546 24.7184 64.6495 24.7184C63.3443 24.7184 61.9914 25.3696 61.6546 26.9751H67.5573H67.5601Z" fill="white"/>
<path d="M80.3027 29.0147C79.8508 31.4061 77.8103 32.5765 75.7698 32.5934C73.4121 32.6271 71.0376 31.0721 71.0376 27.9285C71.0376 24.7849 73.3784 23.2637 75.7361 23.2637C77.7935 23.2637 79.8508 24.4509 80.3027 26.8591H78.6131C78.2117 25.4221 76.9907 24.7176 75.753 24.7176C74.2317 24.7176 72.6767 25.7701 72.6767 27.9285C72.6767 30.0869 74.2149 31.1563 75.7698 31.1563C77.0076 31.1563 78.2117 30.4546 78.6131 29.0147H80.3027Z" fill="white"/>
<path d="M83.9658 24.5327C84.6507 23.5615 85.605 23.278 86.7417 23.278C89.5008 23.278 90.688 25.0014 90.688 27.5921V32.459H89.0489V27.6089C89.0489 25.9192 88.6138 24.7656 86.6912 24.732C84.9341 24.6983 83.9658 25.9529 83.9658 27.5415V32.459H82.3435V20.752H83.9658V24.5327Z" fill="white"/>
<path d="M94.8728 23.4126V24.5325C95.5408 23.5613 96.5119 23.2778 97.6487 23.2778C100.408 23.2778 101.578 25.0012 101.578 27.5918V32.4588H99.9558V27.6087C99.9558 25.919 99.5208 24.7654 97.5982 24.7317C95.8411 24.6981 94.8728 25.9527 94.8728 27.5413V32.4588H93.2336V23.4098H94.8728V23.4126Z" fill="white"/>
<path d="M108.536 32.6271C106.111 32.6271 103.686 31.0553 103.686 27.9454C103.686 24.8355 106.128 23.2637 108.587 23.2637C111.045 23.2637 113.437 24.8355 113.437 27.9454C113.437 31.0553 110.995 32.6271 108.536 32.6271ZM108.536 31.1563C110.175 31.1732 111.814 30.0869 111.814 27.9454C111.814 25.8038 110.192 24.7176 108.587 24.7176C106.981 24.7176 105.325 25.787 105.325 27.9454C105.325 30.1038 106.931 31.1395 108.536 31.1563Z" fill="white"/>
<path d="M117.315 32.459H115.676V20.752H117.315V32.459Z" fill="white"/>
<path d="M124.29 32.6271C121.865 32.6271 119.44 31.0553 119.44 27.9454C119.44 24.8355 121.882 23.2637 124.341 23.2637C126.8 23.2637 129.191 24.8355 129.191 27.9454C129.191 31.0553 126.749 32.6271 124.29 32.6271ZM124.29 31.1563C125.929 31.1732 127.569 30.0869 127.569 27.9454C127.569 25.8038 125.946 24.7176 124.341 24.7176C122.735 24.7176 121.079 25.787 121.079 27.9454C121.079 30.1038 122.685 31.1395 124.29 31.1563Z" fill="white"/>
<path d="M135.846 36.0213C133.573 36.0213 131.448 35.1175 131.448 33.0601H133.07C133.07 34.2137 134.642 34.5814 135.829 34.5646C137.266 34.5477 138.858 33.8629 138.858 32.1227V31.1684C138.072 32.2041 136.935 32.4398 135.815 32.4398C132.773 32.4398 131.016 30.4161 131.016 27.9574C131.016 25.4987 132.688 23.242 135.849 23.2589C136.969 23.2589 138.207 23.6434 138.875 24.6146V23.4104H140.497V32.1227C140.497 34.9322 138.089 36.0185 135.849 36.0185L135.846 36.0213ZM138.858 27.7104C138.858 26.1049 137.87 24.7493 135.913 24.6988C133.839 24.6482 132.652 26.3211 132.652 27.9602C132.669 29.5489 133.806 31.0028 135.796 31.0028C137.786 31.0028 138.855 29.3805 138.855 27.7076L138.858 27.7104Z" fill="white"/>
<path d="M144.979 21.0859C144.979 22.3574 142.939 22.3574 142.939 21.0859C142.939 19.8145 144.979 19.8145 144.979 21.0859ZM144.78 23.3089H143.141V32.4562H144.78V23.3089Z" fill="white"/>
<path d="M156.383 28.3308H148.723C148.723 30.1046 150.413 31.174 151.766 31.174C152.886 31.174 153.924 30.6884 154.457 29.6696H156.147C155.462 31.6427 153.604 32.6307 151.749 32.6307C149.425 32.6307 147.084 31.0589 147.084 27.949C147.084 24.8391 149.391 23.2842 151.783 23.2842C154.022 23.2842 156.231 24.7072 156.414 27.5477C156.447 27.8143 156.431 28.1006 156.38 28.3336L156.383 28.3308ZM154.693 26.9751C154.376 25.3528 153.088 24.7184 151.783 24.7184C150.477 24.7184 149.125 25.3696 148.788 26.9751H154.69H154.693Z" fill="white"/>
<path d="M161.82 27.1736C163.526 27.2915 165.466 27.8248 165.466 29.8821C165.466 31.9395 163.392 32.6075 161.685 32.6075C159.813 32.6075 158.073 31.8216 157.955 29.6801H159.594C159.661 30.6989 160.632 31.2013 161.769 31.1845C162.589 31.1677 163.827 30.901 163.827 29.8625C163.843 28.8436 162.42 28.6752 161.635 28.6416C160.012 28.5742 158.09 28.0718 158.09 26.0481C158.09 24.0244 159.945 23.2217 161.702 23.2217C163.459 23.2217 165.081 23.9907 165.196 25.8797H163.574C163.49 25.077 162.637 24.6924 161.651 24.6924C160.666 24.6924 159.712 25.077 159.712 26.0144C159.712 27.1512 161.017 27.1175 161.82 27.168V27.1736Z" fill="white"/>
<defs>
<linearGradient id="paint0_linear_23_992" x1="39.8561" y1="1.74315e-06" x2="-9.12332e-05" y2="40.1367" gradientUnits="userSpaceOnUse">
<stop stop-color="#00ADEE"/>
<stop offset="1" stop-color="#E2FF14"/>
</linearGradient>
</defs>
</svg>
