<svg width="126" height="31" viewBox="0 0 126 31" fill="none" xmlns="http://www.w3.org/2000/svg">
<g clip-path="url(#clip0_22_385)">
<path d="M22.6003 1.37845V4.88173C22.6003 5.36595 22.2066 5.75965 21.7224 5.75965H18.3686C17.8044 5.75965 17.8612 6.40809 17.8591 6.4502V8.52395C17.8591 9.00818 17.4654 9.40188 16.9812 9.40188H14.44C13.9558 9.40188 13.5621 9.00818 13.5621 8.52395V5.98282C13.5621 5.49859 13.9558 5.10489 14.44 5.10489H16.4043C17.2949 5.10489 17.3412 4.21223 17.3412 4.06065V1.37845C17.3412 0.894224 17.7349 0.500526 18.2191 0.500526H21.7224C22.2066 0.500526 22.6003 0.894224 22.6003 1.37845ZM30.369 9.42504L27.891 6.94706C27.5478 6.60389 26.992 6.60389 26.6489 6.94706L24.7541 8.84186C24.6467 8.94923 23.9835 9.54714 23.354 8.91765L21.9645 7.52813C21.6213 7.18496 21.0655 7.18496 20.7223 7.52813L18.9244 9.32608C18.5812 9.66925 18.5812 10.2251 18.9244 10.5682L20.7223 12.3662C21.0655 12.7094 21.6213 12.7094 21.9645 12.3662L23.4277 10.903H23.4298C23.4593 10.8714 23.8803 10.3724 24.2782 10.7724L26.6489 13.1431C26.992 13.4862 27.5478 13.4862 27.891 13.1431L30.369 10.6651C30.7121 10.3219 30.7121 9.7661 30.369 9.42293V9.42504ZM21.6929 30.2426L24.1709 27.7646C24.514 27.4214 24.514 26.8656 24.1709 26.5225L22.2761 24.6276C22.1687 24.5203 21.5708 23.8571 22.2003 23.2276L23.5898 21.8381C23.933 21.4949 23.933 20.9391 23.5898 20.5959L21.7919 18.798C21.4487 18.4548 20.8929 18.4548 20.5497 18.798L18.7518 20.5959C18.4086 20.9391 18.4086 21.4949 18.7518 21.8381L20.215 23.3013H20.2171C20.2465 23.3329 20.7434 23.7539 20.3455 24.1518L17.9749 26.5225C17.6317 26.8656 17.6317 27.4214 17.9749 27.7646L20.4529 30.2426C20.796 30.5857 21.3518 30.5857 21.695 30.2426H21.6929ZM30.6258 21.5623V18.059C30.6258 17.5748 30.2321 17.1811 29.7479 17.1811H27.0678C26.9162 17.1811 26.0236 17.1348 26.0236 16.2442V14.2799C26.0236 13.7957 25.6299 13.402 25.1456 13.402H22.6045C22.1203 13.402 21.7266 13.7957 21.7266 14.2799V16.8211C21.7266 17.3053 22.1203 17.699 22.6045 17.699H24.6741H24.6783C24.7204 17.699 25.3688 17.6443 25.3688 18.2085V21.5623C25.3688 22.0465 25.7625 22.4402 26.2467 22.4402H29.75C30.2342 22.4402 30.6279 22.0465 30.6279 21.5623H30.6258ZM9.61882 30.4131H13.1221C13.6063 30.4131 14 30.0194 14 29.5352V26.8551C14 26.7035 14.0463 25.8108 14.9369 25.8108H16.9012C17.3854 25.8108 17.7791 25.4172 17.7791 24.9329V22.3918C17.7791 21.9076 17.3854 21.5139 16.9012 21.5139H14.36C13.8758 21.5139 13.4821 21.9076 13.4821 22.3918V24.4655C13.4821 24.5076 13.5368 25.1561 12.9726 25.1561H9.61882C9.13459 25.1561 8.7409 25.5498 8.7409 26.034V29.5373C8.7409 30.0215 9.13459 30.4152 9.61882 30.4152V30.4131ZM0.972221 21.5749L3.4502 24.0529C3.79337 24.3961 4.34917 24.3961 4.69234 24.0529L6.58714 22.1581C6.69451 22.0507 7.35769 21.4528 7.98719 22.0823L9.37671 23.4718C9.71988 23.815 10.2757 23.815 10.6189 23.4718L12.4168 21.6739C12.76 21.3307 12.76 20.7749 12.4168 20.4317L10.6189 18.6338C10.2757 18.2906 9.71988 18.2906 9.37671 18.6338L7.9135 20.097H7.9114C7.88192 20.1286 7.46086 20.6275 7.06295 20.2275L4.69234 17.8569C4.34917 17.5137 3.79337 17.5137 3.4502 17.8569L0.972221 20.3328C0.629051 20.6759 0.629051 21.2317 0.972221 21.5749ZM9.64829 0.757377L7.17032 3.23535C6.82715 3.57852 6.82715 4.13433 7.17032 4.4775L9.06512 6.3723C9.17249 6.47967 9.7704 7.14285 9.14091 7.77235L7.75139 9.16187C7.40822 9.50504 7.40822 10.0608 7.75139 10.404L9.54934 12.202C9.89251 12.5451 10.4483 12.5451 10.7915 12.202L12.5894 10.404C12.9326 10.0608 12.9326 9.50504 12.5894 9.16187L11.1262 7.69866H11.1241C11.0947 7.66708 10.5978 7.24602 10.9957 6.84811L13.3663 4.4775C13.7095 4.13433 13.7095 3.57852 13.3663 3.23535L10.8904 0.757377C10.5473 0.414208 9.99146 0.414208 9.64829 0.757377ZM0.71537 9.43767V12.9409C0.71537 13.4252 1.10907 13.8189 1.59329 13.8189H4.27338C4.42497 13.8189 5.31763 13.8652 5.31763 14.7557V16.72C5.31763 17.2042 5.71132 17.5979 6.19555 17.5979H8.73669C9.22091 17.5979 9.61461 17.2042 9.61461 16.72V14.1789C9.61461 13.6947 9.22091 13.301 8.73669 13.301H6.66714H6.66293C6.62083 13.301 5.97238 13.3557 5.97238 12.7915V9.43767C5.97238 8.95344 5.57869 8.55974 5.09446 8.55974H1.59329C1.10907 8.56185 0.71537 8.95344 0.71537 9.43767Z" fill="url(#paint0_linear_22_385)"/>
<path d="M41.536 15.4538V7.79043H38.877V6.58618H45.4498V7.79043H42.8034V15.4538H41.536Z" fill="black"/>
<path d="M47.6583 9.50849C48.172 8.78005 48.8878 8.56741 49.7405 8.56741C51.81 8.56741 52.7006 9.86008 52.7006 11.8033V15.454H51.471V11.8159C51.471 10.5485 51.1447 9.68323 49.7026 9.65797C48.3846 9.63271 47.6583 10.5738 47.6583 11.7654V15.454H46.4414V6.67261H47.6583V9.50849Z" fill="black"/>
<path d="M61.2445 12.3569H55.499C55.499 13.6875 56.7665 14.4896 57.7812 14.4896C58.6213 14.4896 59.4002 14.1254 59.8002 13.3612H61.0676C60.5539 14.8412 59.1602 15.5823 57.7686 15.5823C56.0254 15.5823 54.2695 14.4033 54.2695 12.0706C54.2695 9.73789 56.0001 8.57153 57.7939 8.57153C59.4739 8.57153 61.1308 9.63683 61.2677 11.7695C61.2929 11.9695 61.2803 12.1843 61.2424 12.359L61.2445 12.3569ZM59.9771 11.34C59.7392 10.1232 58.7728 9.64736 57.7939 9.64736C56.8149 9.64736 55.8001 10.1358 55.5475 11.34H59.975H59.9771Z" fill="black"/>
<path d="M70.8029 13.2349H67.2407L66.388 15.4561H65.0195L68.5439 6.56104H69.4723L72.9966 15.4561H71.6408L70.8008 13.2349H70.8029ZM67.7038 12.0433H70.3376L69.0197 8.58005L67.7017 12.0433H67.7038Z" fill="black"/>
<path d="M75.2316 9.54639C75.8211 8.74426 76.6738 8.55478 77.5138 8.55478C79.8086 8.55478 81.0002 10.199 81.0002 12.0286C81.0002 13.8581 79.8591 15.5655 77.4885 15.5655C76.6485 15.5529 75.7201 15.2771 75.2295 14.536V15.4518H74V6.67261H75.2295V9.54639H75.2316ZM77.4401 14.4771C78.996 14.515 79.7854 13.2728 79.7728 12.0307C79.7602 10.8391 79.0191 9.66008 77.5391 9.63481C76.3853 9.62218 75.2316 10.4243 75.2316 12.0559C75.2316 13.6876 76.3222 14.4518 77.4401 14.4771Z" fill="black"/>
<path d="M83.7373 15.454H82.5078V6.67261H83.7373V15.454Z" fill="black"/>
<path d="M92.2562 12.3569H86.5108C86.5108 13.6875 87.7782 14.4896 88.7929 14.4896C89.633 14.4896 90.4119 14.1254 90.812 13.3612H92.0794C91.5657 14.8412 90.1719 15.5823 88.7803 15.5823C87.0371 15.5823 85.2812 14.4033 85.2812 12.0706C85.2812 9.73789 87.0118 8.57153 88.8056 8.57153C90.4856 8.57153 92.1425 9.63683 92.2794 11.7695C92.3046 11.9695 92.292 12.1843 92.2541 12.359L92.2562 12.3569ZM90.9888 11.34C90.7509 10.1232 89.7846 9.64736 88.8056 9.64736C87.8266 9.64736 86.8118 10.1358 86.5592 11.34H90.9867H90.9888Z" fill="black"/>
<path d="M41.536 27.8283V20.1627H38.877V18.9585H45.4498V20.1627H42.8034V27.8283H41.536Z" fill="black"/>
<path d="M53.1156 24.7292H47.3701C47.3701 26.0598 48.6376 26.8619 49.6523 26.8619C50.4923 26.8619 51.2713 26.4977 51.6713 25.7335H52.9387C52.425 27.2135 51.0313 27.9546 49.6397 27.9546C47.8965 27.9546 46.1406 26.7756 46.1406 24.4429C46.1406 22.1102 47.8712 20.9438 49.665 20.9438C51.345 20.9438 53.0019 22.0091 53.1388 24.1419C53.164 24.3419 53.1514 24.5566 53.1135 24.7313L53.1156 24.7292ZM51.8482 23.7124C51.6103 22.4955 50.6439 22.0197 49.665 22.0197C48.686 22.0197 47.6712 22.5081 47.4186 23.7124H51.8461H51.8482Z" fill="black"/>
<path d="M61.4067 25.243C61.0678 27.0368 59.5372 27.9147 58.0066 27.9273C56.2381 27.9526 54.457 26.7862 54.457 24.4283C54.457 22.0703 56.2129 20.9292 57.9814 20.9292C59.5246 20.9292 61.0678 21.8198 61.4067 23.6261H60.1393C59.8383 22.5482 58.9224 22.0198 57.994 22.0198C56.8529 22.0198 55.6865 22.8093 55.6865 24.4283C55.6865 26.0473 56.8403 26.8494 58.0066 26.8494C58.9351 26.8494 59.8383 26.3231 60.1393 25.243H61.4067Z" fill="black"/>
<path d="M64.1544 21.8808C64.6681 21.1524 65.3839 20.9397 66.2366 20.9397C68.3061 20.9397 69.1967 22.2324 69.1967 24.1756V27.8263H67.9671V24.1883C67.9671 22.9208 67.6408 22.0555 66.1987 22.0303C64.8807 22.005 64.1544 22.9461 64.1544 24.1377V27.8263H62.9375V19.0449H64.1544V21.8808Z" fill="black"/>
<path d="M72.335 21.0408V21.8808C72.8361 21.1523 73.5645 20.9397 74.4172 20.9397C76.4867 20.9397 77.3646 22.2324 77.3646 24.1756V27.8262H76.1477V24.1882C76.1477 22.9208 75.8214 22.0555 74.3793 22.0303C73.0613 22.005 72.335 22.9461 72.335 24.1377V27.8262H71.1055V21.0386H72.335V21.0408Z" fill="black"/>
<path d="M82.5833 27.9526C80.7643 27.9526 78.9453 26.7736 78.9453 24.4409C78.9453 22.1082 80.7769 20.9292 82.6212 20.9292C84.4655 20.9292 86.2592 22.1082 86.2592 24.4409C86.2592 26.7736 84.4276 27.9526 82.5833 27.9526ZM82.5833 26.8494C83.8128 26.862 85.0424 26.0473 85.0424 24.4409C85.0424 22.8345 83.8255 22.0198 82.6212 22.0198C81.417 22.0198 80.1748 22.8219 80.1748 24.4409C80.1748 26.0599 81.3791 26.8368 82.5833 26.8494Z" fill="black"/>
<path d="M89.169 27.8282H87.9395V19.0469H89.169V27.8282Z" fill="black"/>
<path d="M94.4017 27.9526C92.5827 27.9526 90.7637 26.7736 90.7637 24.4409C90.7637 22.1082 92.5953 20.9292 94.4396 20.9292C96.2839 20.9292 98.0776 22.1082 98.0776 24.4409C98.0776 26.7736 96.246 27.9526 94.4017 27.9526ZM94.4017 26.8494C95.6312 26.862 96.8607 26.0473 96.8607 24.4409C96.8607 22.8345 95.6438 22.0198 94.4396 22.0198C93.2353 22.0198 91.9932 22.8219 91.9932 24.4409C91.9932 26.0599 93.1974 26.8368 94.4017 26.8494Z" fill="black"/>
<path d="M103.069 30.5C101.363 30.5 99.7695 29.8221 99.7695 28.2789H100.986C100.986 29.1442 102.165 29.42 103.056 29.4074C104.134 29.3947 105.328 28.881 105.328 27.5757V26.8599C104.738 27.6368 103.885 27.8136 103.045 27.8136C100.763 27.8136 99.4453 26.2957 99.4453 24.4514C99.4453 22.6071 100.7 20.9144 103.071 20.9271C103.911 20.9271 104.839 21.2155 105.342 21.9439V21.0408H106.559V27.5757C106.559 29.6832 104.753 30.4979 103.071 30.4979L103.069 30.5ZM105.328 24.2661C105.328 23.0619 104.587 22.045 103.119 22.0071C101.563 21.9692 100.673 23.224 100.673 24.4535C100.685 25.6451 101.538 26.7357 103.031 26.7357C104.523 26.7357 105.326 25.5188 105.326 24.264L105.328 24.2661Z" fill="black"/>
<path d="M109.919 19.2976C109.919 20.2513 108.389 20.2513 108.389 19.2976C108.389 18.3438 109.919 18.3438 109.919 19.2976ZM109.77 20.965H108.54V27.8263H109.77V20.965Z" fill="black"/>
<path d="M118.473 24.7292H112.728C112.728 26.0598 113.995 26.8619 115.01 26.8619C115.85 26.8619 116.629 26.4977 117.029 25.7335H118.296C117.782 27.2135 116.389 27.9546 114.997 27.9546C113.254 27.9546 111.498 26.7756 111.498 24.4429C111.498 22.1102 113.229 20.9438 115.022 20.9438C116.702 20.9438 118.359 22.0091 118.496 24.1419C118.521 24.3419 118.509 24.5566 118.471 24.7313L118.473 24.7292ZM117.206 23.7124C116.968 22.4955 116.001 22.0197 115.022 22.0197C114.043 22.0197 113.029 22.5081 112.776 23.7124H117.203H117.206Z" fill="black"/>
<path d="M122.551 23.864C123.831 23.9524 125.286 24.3524 125.286 25.8956C125.286 27.4388 123.73 27.9399 122.45 27.9399C121.046 27.9399 119.741 27.3504 119.652 25.744H120.882C120.932 26.5083 121.659 26.8851 122.513 26.8725C123.128 26.8599 124.057 26.6599 124.057 25.8809C124.069 25.1166 123.004 24.9903 122.412 24.9651C121.196 24.9145 119.753 24.5377 119.753 23.0197C119.753 21.5018 121.145 20.8997 122.463 20.8997C123.781 20.8997 124.998 21.4765 125.084 22.8934H123.867C123.804 22.2913 123.164 22.0029 122.425 22.0029C121.686 22.0029 120.97 22.2913 120.97 22.9945C120.97 23.8471 121.949 23.8219 122.551 23.8598V23.864Z" fill="black"/>
</g>
<defs>
<linearGradient id="paint0_linear_22_385" x1="1.27749" y1="21.017" x2="29.2068" y2="10.3114" gradientUnits="userSpaceOnUse">
<stop stop-color="#E2FF14"/>
<stop offset="1" stop-color="#00ADEE"/>
</linearGradient>
<clipPath id="clip0_22_385">
<rect width="124.572" height="30" fill="white" transform="translate(0.714844 0.5)"/>
</clipPath>
</defs>
</svg>
